<mxfile host="app.diagrams.net" modified="2023-07-12T22:57:50.313Z" agent="Mozilla/5.0 (Windows NT 10.0; Win64; x64) AppleWebKit/537.36 (KHTML, like Gecko) Chrome/114.0.0.0 Safari/537.36" version="21.5.1" etag="53dfUXzCPV-hn7wziFRu" type="github">
  <diagram name="Page-1" id="kUXN2b5fbBRe-j2Xii1l">
    <mxGraphModel>
      <root>
        <mxCell id="0" />
        <mxCell id="1" parent="0" />
      </root>
    </mxGraphModel>
  </diagram>
</mxfile>
